<svg xmlns="http://www.w3.org/2000/svg" version="1.1" xmlns:xlink="http://www.w3.org/1999/xlink" viewBox="0 0 200 200"><rect width="200" height="200" fill="url('#gradient')"></rect><defs><linearGradient id="gradient" gradientTransform="rotate(45 0.5 0.5)"><stop offset="0%" stop-color="#5bab32"></stop><stop offset="100%" stop-color="#5bab32"></stop></linearGradient></defs><g><g fill="#ffffff" transform="matrix(5.304325304325304,0,0,5.304325304325304,-5.6904377565887785,137.7180092484801)" stroke="#ffffff" stroke-width="0.2"><path d="M6.85 0L1.07 0L1.07-14.22L6.18-14.22Q8.93-14.22 10.36-13.21Q11.79-12.21 11.79-10.29L11.79-10.29Q11.79-9.19 11.28-8.41Q10.77-7.63 9.79-7.26L9.79-7.26Q10.90-6.96 11.49-6.16Q12.09-5.36 12.09-4.21L12.09-4.21Q12.09-2.12 10.77-1.07Q9.44-0.02 6.85 0L6.85 0ZM6.90-6.04L4.50-6.04L4.50-2.64L6.75-2.64Q7.68-2.64 8.17-3.06Q8.67-3.49 8.67-4.26L8.67-4.26Q8.67-6.04 6.90-6.04L6.90-6.04ZM4.50-11.57L4.50-8.29L6.29-8.29Q7.41-8.30 7.89-8.70Q8.37-9.10 8.37-9.88L8.37-9.88Q8.37-10.78 7.85-11.18Q7.33-11.57 6.18-11.57L6.18-11.57L4.50-11.57ZM25.62-7.60L25.62-1.76Q24.82-0.88 23.30-0.34Q21.78 0.20 19.96 0.20L19.96 0.20Q17.17 0.20 15.50-1.51Q13.83-3.22 13.71-6.27L13.71-6.27L13.70-7.50Q13.70-9.60 14.44-11.17Q15.19-12.73 16.57-13.58Q17.95-14.42 19.77-14.42L19.77-14.42Q22.42-14.42 23.89-13.21Q25.36-11.99 25.61-9.58L25.61-9.58L22.30-9.58Q22.13-10.77 21.54-11.28Q20.96-11.79 19.88-11.79L19.88-11.79Q18.59-11.79 17.89-10.69Q17.19-9.60 17.18-7.57L17.18-7.57L17.18-6.71Q17.18-4.58 17.91-3.51Q18.63-2.44 20.20-2.44L20.20-2.44Q21.53-2.44 22.19-3.04L22.19-3.04L22.19-5.24L19.80-5.24L19.80-7.60L25.62-7.60ZM32.29 0L27.61 0L27.61-14.22L32.19-14.22Q34.07-14.22 35.58-13.36Q37.08-12.51 37.92-10.95Q38.77-9.39 38.78-7.46L38.78-7.46L38.78-6.81Q38.78-4.85 37.95-3.31Q37.13-1.76 35.63-0.88Q34.13-0.01 32.29 0L32.29 0ZM32.19-11.57L31.04-11.57L31.04-2.64L32.23-2.64Q33.70-2.64 34.49-3.69Q35.28-4.74 35.28-6.81L35.28-6.81L35.28-7.42Q35.28-9.48 34.49-10.53Q33.70-11.57 32.19-11.57L32.19-11.57Z"></path></g></g></svg>